<svg width="18" height="18" viewBox="0 0 18 18" fill="none" xmlns="http://www.w3.org/2000/svg">
<g id="Frame 612">
<g id="Frame">
<path id="Vector" d="M13.1762 4.07119C11.7044 2.59932 9.30748 2.59932 7.83717 4.07119L3.75905 8.14619C3.73248 8.17275 3.71842 8.20869 3.71842 8.24619C3.71842 8.28369 3.73248 8.31963 3.75905 8.34619L4.33561 8.92275C4.36196 8.94899 4.39764 8.96372 4.43483 8.96372C4.47202 8.96372 4.50769 8.94899 4.53405 8.92275L8.61217 4.84775C9.11842 4.3415 9.79186 4.06338 10.5075 4.06338C11.2231 4.06338 11.8965 4.3415 12.4012 4.84775C12.9075 5.354 13.1856 6.02744 13.1856 6.7415C13.1856 7.45713 12.9075 8.129 12.4012 8.63525L8.24498 12.7899L7.57155 13.4634C6.94186 14.0931 5.91842 14.0931 5.28873 13.4634C4.98405 13.1587 4.81686 12.754 4.81686 12.3228C4.81686 11.8915 4.98405 11.4868 5.28873 11.1821L9.41217 7.06025C9.51686 6.95713 9.65436 6.89932 9.80123 6.89932H9.8028C9.94967 6.89932 10.0856 6.95713 10.1887 7.06025C10.2934 7.16494 10.3497 7.30244 10.3497 7.44932C10.3497 7.59463 10.2919 7.73213 10.1887 7.83525L6.81842 11.2024C6.79186 11.229 6.7778 11.2649 6.7778 11.3024C6.7778 11.3399 6.79186 11.3759 6.81842 11.4024L7.39498 11.979C7.42134 12.0052 7.45701 12.02 7.4942 12.02C7.53139 12.02 7.56707 12.0052 7.59342 11.979L10.9622 8.61025C11.2731 8.29932 11.4434 7.88682 11.4434 7.44775C11.4434 7.00869 11.2715 6.59463 10.9622 6.28525C10.32 5.64307 9.27623 5.64463 8.63405 6.28525L8.23405 6.68682L4.51217 10.4071C4.25956 10.6583 4.05933 10.957 3.92307 11.2861C3.78681 11.6152 3.71725 11.9681 3.71842 12.3243C3.71842 13.0478 4.00123 13.7274 4.51217 14.2384C5.04186 14.7665 5.73561 15.0306 6.42936 15.0306C7.12311 15.0306 7.81686 14.7665 8.34498 14.2384L13.1762 9.41025C13.8872 8.69775 14.2809 7.74932 14.2809 6.7415C14.2825 5.73213 13.8887 4.78369 13.1762 4.07119Z" fill="#B0B4B7"/>
</g>
</g>
</svg>
