<svg width="18" height="18" viewBox="0 0 18 18" fill="none" xmlns="http://www.w3.org/2000/svg">
<g id="Frame" clip-path="url(#clip0_467_10841)">
<path id="Vector" d="M5.94615 2.40883H5.78543C5.87382 2.40883 5.94615 2.33651 5.94615 2.24812V2.40883H12.0533V2.24812C12.0533 2.33651 12.1256 2.40883 12.214 2.40883H12.0533V3.85526H13.4997V2.24812C13.4997 1.53896 12.9232 0.962402 12.214 0.962402H5.78543C5.07628 0.962402 4.49972 1.53896 4.49972 2.24812V3.85526H5.94615V2.40883ZM16.0711 3.85526H1.92829C1.57271 3.85526 1.28543 4.14254 1.28543 4.49812V5.14097C1.28543 5.22937 1.35775 5.30169 1.44615 5.30169H2.65954L3.15574 15.8084C3.18789 16.4934 3.7544 17.0338 4.43945 17.0338H13.56C14.247 17.0338 14.8115 16.4954 14.8437 15.8084L15.3399 5.30169H16.5533C16.6417 5.30169 16.714 5.22937 16.714 5.14097V4.49812C16.714 4.14254 16.4267 3.85526 16.0711 3.85526ZM13.4053 15.5874H4.59414L4.10798 5.30169H13.8915L13.4053 15.5874Z" fill="#4E5969"/>
</g>
<defs>
<clipPath id="clip0_467_10841">
<rect width="18" height="18" fill="white"/>
</clipPath>
</defs>
</svg>
