<?xml version="1.0" standalone="no"?><!DOCTYPE svg PUBLIC "-//W3C//DTD SVG 1.1//EN" "http://www.w3.org/Graphics/SVG/1.1/DTD/svg11.dtd"><svg t="1673924723740" class="icon" viewBox="0 0 1024 1024" version="1.1" xmlns="http://www.w3.org/2000/svg" p-id="885" xmlns:xlink="http://www.w3.org/1999/xlink" width="200" height="200"><path d="M736 480h-192v-192A32 32 0 0 0 512 256a32 32 0 0 0-32 32v192h-192A32 32 0 0 0 256 512a32 32 0 0 0 32 32h192v192a32 32 0 0 0 32 32 32 32 0 0 0 32-32v-192h192A32 32 0 0 0 768 512a32 32 0 0 0-32-32z" p-id="886"></path><path d="M512 64C264.96 64 64 264.96 64 512s200.96 448 448 448 448-200.96 448-448-200.96-448-448-448m0-64a512 512 0 1 1 0 1024A512 512 0 0 1 512 0z" p-id="887"></path></svg>